<?xml version="1.0" encoding="UTF-8" standalone="no"?>
<svg
   xmlns:dc="http://purl.org/dc/elements/1.1/"
   xmlns:cc="http://creativecommons.org/ns#"
   xmlns:rdf="http://www.w3.org/1999/02/22-rdf-syntax-ns#"
   xmlns:svg="http://www.w3.org/2000/svg"
   xmlns="http://www.w3.org/2000/svg"
   xmlns:sodipodi="http://sodipodi.sourceforge.net/DTD/sodipodi-0.dtd"
   xmlns:inkscape="http://www.inkscape.org/namespaces/inkscape"
   height="512"
   viewBox="0 0 58 58"
   width="512"
   version="1.1"
   id="svg35"
   sodipodi:docname="computer-off.svg"
   inkscape:version="0.92.5 (2060ec1f9f, 2020-04-08)">
  <metadata
     id="metadata41">
    <rdf:RDF>
      <cc:Work
         rdf:about="">
        <dc:format>image/svg+xml</dc:format>
        <dc:type
           rdf:resource="http://purl.org/dc/dcmitype/StillImage" />
      </cc:Work>
    </rdf:RDF>
  </metadata>
  <defs
     id="defs39" />
  <sodipodi:namedview
     pagecolor="#ffffff"
     bordercolor="#666666"
     borderopacity="1"
     objecttolerance="10"
     gridtolerance="10"
     guidetolerance="10"
     inkscape:pageopacity="0"
     inkscape:pageshadow="2"
     inkscape:window-width="1920"
     inkscape:window-height="1017"
     id="namedview37"
     showgrid="false"
     inkscape:zoom="1.3037281"
     inkscape:cx="222.90475"
     inkscape:cy="243.68608"
     inkscape:window-x="1672"
     inkscape:window-y="-8"
     inkscape:window-maximized="1"
     inkscape:current-layer="016---PC-and-Monitor" />
  <g
     id="Page-1"
     fill="none"
     fill-rule="evenodd">
    <g
       id="016---PC-and-Monitor"
       fill-rule="nonzero">
      <path
         id="Shape"
         d="m30 58h26c1.1032019-.0032948 1.9967052-.8967981 2-2v-54c-.0032948-1.10320187-.8967981-1.9967052-2-2h-26c-1.1032019.0032948-1.9967052.89679813-2 2v54c0 1.1045695.8954305 2 2 2z"
         fill="#285680" />
      <path
         id="Rectangle-path"
         d="m16 47h12v8h-12z"
         fill="#547580" />
      <path
         id="path4"
         d="m44 43v1c0 2.209139-1.790861 4-4 4h-36c-2.209139 0-4-1.790861-4-4v-1z"
         fill="#84b5cb" />
      <path
         id="path6"
         d="m44 18v25h-44v-25c0-2.209139 1.790861-4 4-4h36c2.209139 0 4 1.790861 4 4z"
         fill="#2980ba"
         style="fill:#253544;fill-opacity:1" />
      <path
         id="path8"
         d="m34 56c-.0081672 1.1011688-.8988312 1.9918328-2 2h-20c-1.1032019-.0032948-1.9967052-.8967981-2-2 .0081672-1.1011688.8988312-1.9918328 2-2h20c1.1032019.0032948 1.9967052.8967981 2 2z"
         fill="#84b5cb" />
      <rect
         id="rect10"
         fill="#2c3e50"
         height="4"
         rx="1"
         width="22"
         x="32"
         y="5" />
      <path
         style="fill:#2c3e50;stroke-width:8.82758617;fill-opacity:1"
         d="M 450.20703 123.58594 A 17.655172 17.655172 0 0 0 432.55078 141.24219 A 17.655172 17.655172 0 0 0 450.20703 158.89648 A 17.655172 17.655172 0 0 0 467.86133 141.24219 A 17.655172 17.655172 0 0 0 450.20703 123.58594 z "
         transform="scale(0.11328125)"
         id="Oval" />
      <circle
         id="circle13"
         cx="51"
         cy="24"
         fill="#4fba6f"
         r="2"
         style="fill:#2c3e50;fill-opacity:1" />
      <g
         fill="#2c3e50"
         id="g25">
        <path
           id="path15"
           d="m38 55c-.5522847 0-1-.4477153-1-1v-2c0-.5522847.4477153-1 1-1s1 .4477153 1 1v2c0 .5522847-.4477153 1-1 1z" />
        <path
           id="path17"
           d="m42 55c-.5522847 0-1-.4477153-1-1v-2c0-.5522847.4477153-1 1-1s1 .4477153 1 1v2c0 .5522847-.4477153 1-1 1z" />
        <path
           id="path19"
           d="m46 55c-.5522847 0-1-.4477153-1-1v-2c0-.5522847.4477153-1 1-1s1 .4477153 1 1v2c0 .5522847-.4477153 1-1 1z" />
        <path
           id="path21"
           d="m50 55c-.5522847 0-1-.4477153-1-1v-2c0-.5522847.4477153-1 1-1s1 .4477153 1 1v2c0 .5522847-.4477153 1-1 1z" />
        <path
           id="path23"
           d="m54 55c-.5522847 0-1-.4477153-1-1v-2c0-.5522847.4477153-1 1-1s1 .4477153 1 1v2c0 .5522847-.4477153 1-1 1z" />
      </g>
      <path
         id="path27"
         d="m36.82 14c-.17 6.09-1.96 24-36.82 24v-20c0-2.209139 1.790861-4 4-4z"
         fill="#3b97d3"
         style="fill:#2c3e50;fill-opacity:1" />
      <path
         id="path29"
         d="m4 23c-.4043959-.0000863-.76893405-.2437275-.92367798-.6173454-.15474393-.373618-.06922994-.8036603.21667798-1.0896546l4-4c.39237889-.3789722 1.01608478-.3735524 1.40181858.0121814.38573379.3857338.39115363 1.0094397.01218142 1.4018186l-4 4c-.18749273.1875494-.44180519.2929434-.707.293z"
         fill="#fff" />
      <path
         id="path31"
         d="m4 29c-.4043959-.0000863-.76893405-.2437275-.92367798-.6173454-.15474393-.373618-.06922994-.8036603.21667798-1.0896546l10-10c.3923789-.3789722 1.0160848-.3735524 1.4018186.0121814s.3911536 1.0094397.0121814 1.4018186l-10 10c-.18749273.1875494-.44180519.2929434-.707.293z"
         fill="#fff" />
    </g>
  </g>
</svg>
