<?xml version="1.0" encoding="UTF-8" standalone="no"?>
<svg
   xmlns:dc="http://purl.org/dc/elements/1.1/"
   xmlns:cc="http://creativecommons.org/ns#"
   xmlns:rdf="http://www.w3.org/1999/02/22-rdf-syntax-ns#"
   xmlns:svg="http://www.w3.org/2000/svg"
   xmlns="http://www.w3.org/2000/svg"
   xmlns:sodipodi="http://sodipodi.sourceforge.net/DTD/sodipodi-0.dtd"
   xmlns:inkscape="http://www.inkscape.org/namespaces/inkscape"
   inkscape:version="1.0 (4035a4fb49, 2020-05-01)"
   sodipodi:docname="inverted_presence-on.svg"
   version="1.1"
   width="512"
   viewBox="0 0 512 512"
   height="512"
   enable-background="new 0 0 512 512"
   id="Capa_1">
  <metadata
     id="metadata33">
    <rdf:RDF>
      <cc:Work
         rdf:about="">
        <dc:format>image/svg+xml</dc:format>
        <dc:type
           rdf:resource="http://purl.org/dc/dcmitype/StillImage" />
        <dc:title></dc:title>
      </cc:Work>
    </rdf:RDF>
  </metadata>
  <defs
     id="defs31" />
  <sodipodi:namedview
     inkscape:current-layer="Capa_1"
     inkscape:window-maximized="1"
     inkscape:window-y="-8"
     inkscape:window-x="1672"
     inkscape:cy="302.44172"
     inkscape:cx="302.40751"
     inkscape:zoom="1.1739077"
     showgrid="false"
     id="namedview29"
     inkscape:window-height="1017"
     inkscape:window-width="1920"
     inkscape:pageshadow="2"
     inkscape:pageopacity="0"
     guidetolerance="10"
     gridtolerance="10"
     objecttolerance="10"
     borderopacity="1"
     bordercolor="#666666"
     pagecolor="#ffffff" />
  <g
     id="g26">
    <path
       style="fill:#dfe7f4;fill-opacity:1"
       id="path2"
       fill="#f0f7ff"
       d="m256 43.5-226 140.7v312.8c0 8.401 6.599 15 15 15h211 211c8.401 0 15-6.599 15-15v-312.8z" />
    <path
       style="fill:#6b77e8;fill-opacity:1"
       id="path6"
       fill="#979fef"
       d="m504.954 152.285-241-150c-2.432-1.523-5.193-2.285-7.954-2.285s-5.522.762-7.954 2.285l-241 150c-4.38 2.739-7.046 7.544-7.046 12.715v40.752c0 5.449 2.959 10.474 7.734 13.125 4.731 2.622 10.591 2.49 15.22-.41l233.046-145.02 233.046 145.02c4.708 2.95 10.532 2.997 15.22.41 4.775-2.651 7.734-7.676 7.734-13.125v-40.752c0-5.171-2.666-9.976-7.046-12.715z" />
    <path
       id="path8"
       fill="#6b77e8"
       d="m504.266 218.877c4.775-2.651 7.734-7.676 7.734-13.125v-40.752c0-5.171-2.666-9.976-7.046-12.715l-241-150c-2.432-1.523-5.193-2.285-7.954-2.285v73.447l233.046 145.02c4.708 2.95 10.532 2.997 15.22.41z" />
    <g
       id="g16"
       fill="#c3ea21">
      <path
         style="fill:#ff0000;fill-opacity:1"
         id="path10"
         d="m372.66 258.384c-31.172-31.201-72.597-48.384-116.66-48.384s-85.488 17.183-116.66 48.384c-5.859 5.859-5.859 15.366 0 21.211 5.859 5.859 15.352 5.859 21.211 0 25.517-25.532 59.399-39.595 95.449-39.595s69.932 14.063 95.449 39.595c5.859 5.859 15.352 5.859 21.211 0 5.86-5.845 5.86-15.352 0-21.211z" />
      <path
         style="fill:#ff0000;fill-opacity:1"
         id="path12"
         d="m256 271.003c-27.178 0-54.36 9.924-74.224 29.773-5.859 5.845-5.859 15.352 0 21.211s15.352 5.859 21.211 0c14.194-14.18 33.605-21.27 53.013-21.27 19.411 0 38.818 7.09 52.998 21.27 5.859 5.859 15.352 5.859 21.211 0s5.859-15.352 0-21.211c-19.849-19.848-47.027-29.773-74.209-29.773z" />
      <circle
         style="fill:#ff0000;fill-opacity:1"
         id="circle14"
         r="45"
         cy="375"
         cx="256" />
    </g>
    <g
       id="g24"
       fill="#9cdd05" />
  </g>
</svg>
