<?xml version="1.0" encoding="UTF-8" standalone="no"?>
<svg
   xmlns:dc="http://purl.org/dc/elements/1.1/"
   xmlns:cc="http://creativecommons.org/ns#"
   xmlns:rdf="http://www.w3.org/1999/02/22-rdf-syntax-ns#"
   xmlns:svg="http://www.w3.org/2000/svg"
   xmlns="http://www.w3.org/2000/svg"
   xmlns:sodipodi="http://sodipodi.sourceforge.net/DTD/sodipodi-0.dtd"
   xmlns:inkscape="http://www.inkscape.org/namespaces/inkscape"
   height="512pt"
   viewBox="0 0 512 512"
   width="512pt"
   version="1.1"
   id="svg52"
   sodipodi:docname="remote-on.svg"
   inkscape:version="0.92.5 (2060ec1f9f, 2020-04-08)">
  <metadata
     id="metadata58">
    <rdf:RDF>
      <cc:Work
         rdf:about="">
        <dc:format>image/svg+xml</dc:format>
        <dc:type
           rdf:resource="http://purl.org/dc/dcmitype/StillImage" />
        <dc:title></dc:title>
      </cc:Work>
    </rdf:RDF>
  </metadata>
  <defs
     id="defs56" />
  <sodipodi:namedview
     pagecolor="#ffffff"
     bordercolor="#666666"
     borderopacity="1"
     objecttolerance="10"
     gridtolerance="10"
     guidetolerance="10"
     inkscape:pageopacity="0"
     inkscape:pageshadow="2"
     inkscape:window-width="1920"
     inkscape:window-height="1017"
     id="namedview54"
     showgrid="false"
     inkscape:zoom="0.9777961"
     inkscape:cx="340.61654"
     inkscape:cy="474.7242"
     inkscape:window-x="1672"
     inkscape:window-y="-8"
     inkscape:window-maximized="1"
     inkscape:current-layer="svg52" />
  <path
     d="m495.402344 142.121094-125.59375-125.589844c-10.65625-10.660156-24.871094-16.53125-40.023438-16.53125-15.15625 0-29.371094 5.871094-40.027344 16.53125l-247.234374 247.230469c-56.699219 56.695312-56.699219 148.949219 0 205.648437 27.464843 27.464844 63.980468 42.589844 102.824218 42.589844 38.839844 0 75.359375-15.128906 102.820313-42.589844l247.234375-247.230468c22.070312-22.074219 22.070312-57.988282 0-80.058594zm0 0"
     fill="#265c76"
     id="path2" />
  <path
     d="m495.402344 142.121094-62.796875-62.796875-390.082031 390.085937c27.464843 27.464844 63.980468 42.589844 102.824218 42.589844 38.839844 0 75.359375-15.128906 102.820313-42.589844l247.234375-247.230468c22.070312-22.074219 22.070312-57.988282 0-80.058594zm0 0"
     fill="#1d4659"
     id="path4" />
  <path
     d="m120.757812 307.8125c-3.949218 0-7.816406-1.601562-10.609374-4.390625-2.789063-2.800781-4.390626-6.660156-4.390626-10.609375 0-3.953125 1.601563-7.808594 4.390626-10.609375 2.792968-2.792969 6.660156-4.390625 10.609374-4.390625 3.941407 0 7.8125 1.597656 10.601563 4.390625 2.800781 2.800781 4.398437 6.65625 4.398437 10.609375 0 3.949219-1.597656 7.808594-4.398437 10.609375-2.789063 2.789063-6.660156 4.390625-10.601563 4.390625zm0 0"
     fill="#c5e1e6"
     id="path6" />
  <path
     d="m169.9375 356.992188c-3.9375 0-7.808594-1.601563-10.609375-4.390626-2.789063-2.789062-4.390625-6.660156-4.390625-10.609374 0-3.949219 1.601562-7.8125 4.390625-10.609376 2.800781-2.789062 6.660156-4.390624 10.609375-4.390624 3.953125 0 7.820312 1.601562 10.609375 4.390624 2.792969 2.800782 4.390625 6.660157 4.390625 10.609376 0 3.949218-1.597656 7.820312-4.390625 10.609374-2.796875 2.789063-6.65625 4.390626-10.609375 4.390626zm0 0"
     fill="#c5e1e6"
     id="path8" />
  <path
     d="m219.121094 406.171875c-3.953125 0-7.8125-1.601563-10.613282-4.390625-2.789062-2.789062-4.386718-6.660156-4.386718-10.609375s1.597656-7.8125 4.386718-10.601563c2.800782-2.789062 6.660157-4.398437 10.613282-4.398437 3.949218 0 7.808594 1.609375 10.609375 4.398437 2.789062 2.789063 4.390625 6.660157 4.390625 10.601563 0 3.949219-1.601563 7.820313-4.390625 10.609375-2.800781 2.789062-6.660157 4.390625-10.609375 4.390625zm0 0"
     fill="#8db9c4"
     id="path10" />
  <path
     d="m83.867188 344.703125c-3.949219 0-7.816407-1.609375-10.609376-4.402344-2.789062-2.789062-4.390624-6.648437-4.390624-10.597656s1.601562-7.820313 4.390624-10.609375c2.800782-2.792969 6.660157-4.390625 10.609376-4.390625 3.953124 0 7.8125 1.597656 10.613281 4.390625 2.789062 2.789062 4.386719 6.660156 4.386719 10.609375 0 3.9375-1.597657 7.808594-4.386719 10.597656-2.792969 2.792969-6.660157 4.402344-10.613281 4.402344zm0 0"
     fill="#c5e1e6"
     id="path12" />
  <path
     d="m133.050781 393.882812c-3.941406 0-7.8125-1.601562-10.601562-4.402343-2.800781-2.789063-4.398438-6.648438-4.398438-10.597657 0-3.953124 1.597657-7.820312 4.398438-10.609374 2.789062-2.792969 6.648437-4.390626 10.601562-4.390626 3.949219 0 7.816407 1.597657 10.609375 4.390626 2.789063 2.789062 4.390625 6.660156 4.390625 10.609374 0 3.9375-1.601562 7.808594-4.390625 10.597657-2.800781 2.800781-6.660156 4.402343-10.609375 4.402343zm0 0"
     fill="#c5e1e6"
     id="path14" />
  <path
     d="m96.167969 430.761719c-3.949219 0-7.816407-1.601563-10.609375-4.390625-2.789063-2.789063-4.390625-6.660156-4.390625-10.601563 0-3.949219 1.601562-7.816406 4.390625-10.609375 2.792968-2.789062 6.660156-4.390625 10.609375-4.390625s7.8125 1.601563 10.601562 4.390625c2.800781 2.792969 4.398438 6.652344 4.398438 10.609375 0 3.953125-1.597657 7.8125-4.398438 10.601563-2.789062 2.789062-6.652343 4.390625-10.601562 4.390625zm0 0"
     fill="#c5e1e6"
     id="path16" />
  <path
     d="m182.230469 443.0625c-3.941407 0-7.8125-1.601562-10.601563-4.390625-2.789062-2.789063-4.398437-6.660156-4.398437-10.609375 0-3.953125 1.609375-7.820312 4.398437-10.609375 2.789063-2.792969 6.660156-4.390625 10.601563-4.390625 3.949219 0 7.816406 1.597656 10.609375 4.390625 2.789062 2.789063 4.390625 6.65625 4.390625 10.609375 0 3.949219-1.601563 7.820312-4.390625 10.609375-2.789063 2.789063-6.660156 4.390625-10.609375 4.390625zm0 0"
     fill="#8db9c4"
     id="path18" />
  <path
     d="m157.640625 270.921875c-3.941406 0-7.8125-1.601563-10.601563-4.390625-2.789062-2.789062-4.398437-6.660156-4.398437-10.609375s1.609375-7.8125 4.398437-10.601563c2.789063-2.800781 6.660157-4.398437 10.601563-4.398437 3.949219 0 7.816406 1.601563 10.609375 4.398437 2.789062 2.789063 4.390625 6.652344 4.390625 10.601563s-1.601563 7.820313-4.390625 10.609375c-2.792969 2.789062-6.660156 4.390625-10.609375 4.390625zm0 0"
     fill="#c5e1e6"
     id="path20" />
  <path
     d="m206.828125 320.101562c-3.949219 0-7.820313-1.597656-10.609375-4.390624-2.789062-2.789063-4.390625-6.660157-4.390625-10.601563 0-3.949219 1.601563-7.816406 4.390625-10.605469 2.789062-2.792968 6.660156-4.394531 10.609375-4.394531 3.953125 0 7.8125 1.601563 10.601563 4.394531 2.789062 2.789063 4.398437 6.65625 4.398437 10.605469 0 3.941406-1.609375 7.8125-4.398437 10.601563-2.789063 2.792968-6.648438 4.390624-10.601563 4.390624zm0 0"
     fill="#c5e1e6"
     id="path22" />
  <path
     d="m256.007812 369.292969c-3.949218 0-7.816406-1.601563-10.609374-4.402344-2.789063-2.789063-4.390626-6.648437-4.390626-10.597656 0-3.953125 1.601563-7.820313 4.390626-10.609375 2.792968-2.792969 6.660156-4.390625 10.609374-4.390625 3.953126 0 7.8125 1.597656 10.601563 4.390625 2.800781 2.789062 4.398437 6.660156 4.398437 10.609375s-1.597656 7.808593-4.398437 10.597656c-2.789063 2.800781-6.648437 4.402344-10.601563 4.402344zm0 0"
     fill="#8db9c4"
     id="path24" />
  <path
     d="m348.21875 104.933594c-3.949219 0-7.808594-1.601563-10.601562-4.390625-2.800782-2.800781-4.398438-6.660157-4.398438-10.609375 0-3.941406 1.601562-7.8125 4.398438-10.613282 2.789062-2.789062 6.660156-4.386718 10.601562-4.386718 3.949219 0 7.820312 1.597656 10.609375 4.386718 2.789063 2.800782 4.390625 6.660157 4.390625 10.613282 0 3.949218-1.601562 7.820312-4.390625 10.609375-2.789063 2.789062-6.660156 4.390625-10.609375 4.390625zm0 0"
     fill="#ff4949"
     id="path26"
     style="fill:#4fba6f;fill-opacity:1" />
  <path
     d="m422 178.710938c-3.949219 0-7.8125-1.601563-10.609375-4.398438-2.789063-2.789062-4.390625-6.660156-4.390625-10.609375 0-3.941406 1.601562-7.8125 4.390625-10.601563 2.789063-2.789062 6.660156-4.390624 10.609375-4.390624s7.820312 1.601562 10.609375 4.390624c2.789063 2.789063 4.390625 6.660157 4.390625 10.601563 0 3.949219-1.601562 7.820313-4.390625 10.609375-2.800781 2.796875-6.660156 4.398438-10.609375 4.398438zm0 0"
     fill="#8db9c4"
     id="path28"
     style="fill:#4fba6f;fill-opacity:1" />
  <path
     d="m260.808594 197.890625c4.175781-10.605469 12.632812-19.0625 23.234375-23.234375v-53.800781c-39.425781 6.402343-70.636719 37.609375-77.039063 77.03125zm0 0"
     fill="#c5e1e6"
     id="path30" />
  <path
     d="m314.042969 174.65625c10.605469 4.171875 19.0625 12.628906 23.234375 23.234375h53.800781c-6.402344-39.425781-37.609375-70.636719-77.035156-77.039063zm0 0"
     fill="#c5e1e6"
     id="path32" />
  <path
     d="m337.277344 227.890625c-4.175782 10.601563-12.628906 19.058594-23.234375 23.234375v53.800781c39.425781-6.402343 70.632812-37.609375 77.035156-77.035156zm0 0"
     fill="#8db9c4"
     id="path34" />
  <path
     d="m284.042969 251.121094c-10.601563-4.175782-19.058594-12.628906-23.234375-23.230469l-53.800782-.003906c6.398438 39.425781 37.609376 70.636719 77.035157 77.039062zm0 0"
     fill="#c5e1e6"
     id="path36" />
  <g
     fill="#8db9c4"
     id="g50">
    <path
       d="m169.9375 356.992188c3.953125 0 7.8125-1.601563 10.609375-4.390626 2.792969-2.789062 4.390625-6.660156 4.390625-10.609374 0-3.949219-1.597656-7.8125-4.386719-10.609376l-21.222656 21.21875c2.800781 2.789063 6.671875 4.390626 10.609375 4.390626zm0 0"
       id="path38" />
    <path
       d="m133.050781 393.882812c3.949219 0 7.808594-1.601562 10.609375-4.402343 2.789063-2.789063 4.390625-6.660157 4.390625-10.597657 0-3.949218-1.601562-7.820312-4.390625-10.609374l-21.210937 21.210937c2.789062 2.796875 6.660156 4.398437 10.601562 4.398437zm0 0"
       id="path40" />
    <path
       d="m96.167969 430.761719c3.949219 0 7.8125-1.601563 10.601562-4.390625 2.800781-2.789063 4.398438-6.648438 4.398438-10.601563 0-3.957031-1.597657-7.816406-4.398438-10.605469l-21.207031 21.207032c2.785156 2.789062 6.65625 4.390625 10.605469 4.390625zm0 0"
       id="path42" />
    <path
       d="m206.828125 320.101562c3.953125 0 7.8125-1.597656 10.601563-4.390624 2.789062-2.789063 4.398437-6.660157 4.398437-10.601563 0-3.949219-1.609375-7.816406-4.398437-10.605469l-21.207032 21.210938c2.785156 2.789062 6.65625 4.386718 10.605469 4.386718zm0 0"
       id="path44" />
    <path
       d="m364.945312 146.988281-36.875 36.871094c3.960938 3.964844 7.121094 8.730469 9.207032 14.03125h53.800781c-3.199219-19.710937-12.601563-37.371094-26.132813-50.902344zm0 0"
       id="path46" />
    <path
       d="m284.042969 304.925781v-53.804687c-5.300781-2.085938-10.066407-5.242188-14.027344-9.207032l-36.875 36.875c13.53125 13.53125 31.191406 22.933594 50.902344 26.136719zm0 0"
       id="path48" />
  </g>
</svg>
