<?xml version="1.0" encoding="utf-8"?>
<svg width="512px" height="512px" viewBox="0 0 512 512" version="1.1" xmlns:xlink="http://www.w3.org/1999/xlink" xmlns="http://www.w3.org/2000/svg">
  <g id="inverted_presence">
    <g id="g26">
      <path d="M226 0L0 140.7L0 453.5C0 461.901 6.599 468.5 15 468.5L226 468.5L437 468.5C445.401 468.5 452 461.901 452 453.5L452 140.7L226 0Z" transform="translate(29.999994 43.499996)" id="path2" fill="#DFE7F4" fill-rule="evenodd" stroke="none" />
      <path d="M504.954 152.285L263.954 2.285C261.522 0.762 258.761 0 256 0C253.239 0 250.478 0.762 248.046 2.285L7.046 152.285C2.666 155.024 0 159.829 0 165L0 205.752C0 211.201 2.959 216.226 7.734 218.877C12.465 221.499 18.325 221.367 22.954 218.467L256 73.447L489.046 218.467C493.754 221.417 499.578 221.464 504.266 218.877C509.041 216.226 512 211.201 512 205.752L512 165C512 159.829 509.334 155.024 504.954 152.285L504.954 152.285Z" id="path6" fill="#6B77E8" fill-rule="evenodd" stroke="none" />
      <path d="M248.266 218.877C253.041 216.226 256 211.201 256 205.752L256 165C256 159.829 253.334 155.024 248.954 152.285L7.95401 2.285C5.522 0.762 2.76102 0 0 0L0 73.447L233.046 218.467C237.754 221.417 243.578 221.464 248.266 218.877L248.266 218.877Z" transform="translate(256 0)" id="path8" fill="#6B77E8" fill-rule="evenodd" stroke="none" />
      <g id="g16" transform="translate(134.94576 210)">
        <path d="M237.714 48.384C206.542 17.183 165.117 0 121.054 0C76.9913 0 35.5662 17.183 4.39424 48.384C-1.46475 54.243 -1.46475 63.75 4.39424 69.595C10.2532 75.454 19.7462 75.454 25.6052 69.595C51.1222 44.063 85.0042 30 121.054 30C157.104 30 190.986 44.063 216.503 69.595C222.362 75.454 231.855 75.454 237.714 69.595C243.574 63.75 243.574 54.243 237.714 48.384L237.714 48.384Z" id="path10" fill="#000000" fill-rule="evenodd" stroke="none" />
        <path d="M78.6182 0C51.4403 0 24.2582 9.92401 4.39424 29.773C-1.46475 35.618 -1.46475 45.125 4.39424 50.984C10.2532 56.843 19.7462 56.843 25.6052 50.984C39.7992 36.804 59.2102 29.714 78.6182 29.714C98.0293 29.714 117.436 36.804 131.616 50.984C137.475 56.843 146.968 56.843 152.827 50.984C158.686 45.125 158.686 35.632 152.827 29.773C132.978 9.92502 105.8 0 78.6182 0L78.6182 0Z" transform="translate(42.436005 61.00299)" id="path12" fill="#000000" fill-rule="evenodd" stroke="none" />
        <path d="M0 45C0 20.1472 20.1472 0 45 0C69.8528 0 90 20.1472 90 45C90 69.8528 69.8528 90 45 90C20.1472 90 0 69.8528 0 45Z" transform="translate(76.054245 120)" id="circle14" fill="#000000" fill-rule="evenodd" stroke="none" />
      </g>
    </g>
  </g>
</svg>