<?xml version="1.0" encoding="UTF-8" standalone="no"?>
<!-- Generator: Adobe Illustrator 19.0.0, SVG Export Plug-In . SVG Version: 6.00 Build 0)  -->

<svg
   xmlns:dc="http://purl.org/dc/elements/1.1/"
   xmlns:cc="http://creativecommons.org/ns#"
   xmlns:rdf="http://www.w3.org/1999/02/22-rdf-syntax-ns#"
   xmlns:svg="http://www.w3.org/2000/svg"
   xmlns="http://www.w3.org/2000/svg"
   xmlns:sodipodi="http://sodipodi.sourceforge.net/DTD/sodipodi-0.dtd"
   xmlns:inkscape="http://www.inkscape.org/namespaces/inkscape"
   version="1.1"
   id="Layer_1"
   x="0px"
   y="0px"
   viewBox="0 0 512 512"
   style="enable-background:new 0 0 512 512;"
   xml:space="preserve"
   sodipodi:docname="speakers-off.svg"
   inkscape:version="0.92.5 (2060ec1f9f, 2020-04-08)"><metadata
   id="metadata87"><rdf:RDF><cc:Work
       rdf:about=""><dc:format>image/svg+xml</dc:format><dc:type
         rdf:resource="http://purl.org/dc/dcmitype/StillImage" /><dc:title></dc:title></cc:Work></rdf:RDF></metadata><defs
   id="defs85" /><sodipodi:namedview
   pagecolor="#ffffff"
   bordercolor="#666666"
   borderopacity="1"
   objecttolerance="10"
   gridtolerance="10"
   guidetolerance="10"
   inkscape:pageopacity="0"
   inkscape:pageshadow="2"
   inkscape:window-width="1920"
   inkscape:window-height="1017"
   id="namedview83"
   showgrid="false"
   inkscape:zoom="0.4609375"
   inkscape:cx="256"
   inkscape:cy="256"
   inkscape:window-x="1672"
   inkscape:window-y="-8"
   inkscape:window-maximized="1"
   inkscape:current-layer="Layer_1" />
<path
   style="fill:#465066;"
   d="M407.8,13.2C399.699,5.099,388.299,0,376,0H136c-12.299,0-23.699,5.099-31.8,13.2  C96.099,21.301,91,32.701,91,45v422c0,12.299,5.099,23.699,13.2,31.8c8.101,8.099,19.501,13.2,31.8,13.2h240  c12.299,0,23.699-5.101,31.8-13.2c8.101-8.101,13.2-19.501,13.2-31.8V45C421,32.701,415.901,21.301,407.8,13.2z"
   id="path2" />
<path
   style="fill:#35425C;"
   d="M421,45v422c0,12.299-5.099,23.699-13.2,31.8c-8.101,8.099-19.501,13.2-31.8,13.2H256V0h120  c12.299,0,23.699,5.099,31.8,13.2S421,32.701,421,45z"
   id="path4" />
<g
   id="g10">
	<path
   style="fill:#465066;"
   d="M316,135c0,32.999-27.001,60-60,60s-60-27.001-60-60s27.001-60,60-60S316,102.001,316,135z"
   id="path6" />
	<path
   style="fill:#465066;"
   d="M256,257c-49.629,0-90,40.371-90,90s40.371,90,90,90s90-40.371,90-90S305.629,257,256,257z"
   id="path8" />
</g>
<path
   style="fill:#35425C;"
   d="M346,347c0-49.629-40.371-90-90-90v180C305.629,437,346,396.629,346,347z"
   id="path12" />
<path
   style="fill:#DBE2F2;"
   d="M256,302c-24.901,0-45,20.099-45,45c0,24.899,20.099,45,45,45s45-20.101,45-45  C301,322.099,280.901,302,256,302z"
   id="path14" />
<path
   style="fill:#C3CEE6;"
   d="M301,347c0,24.899-20.099,45-45,45v-30v-30v-30C280.9,302,301,322.099,301,347z"
   id="path16" />
<path
   style="fill:#465066;"
   d="M271,347c0,8.399-6.599,15-15,15c-8.401,0-15-6.601-15-15c0-8.401,6.599-15,15-15  C264.401,332,271,338.599,271,347z"
   id="path18" />
<path
   style="fill:#35425C;"
   d="M256,362v-30c8.401,0,15,6.599,15,15C271,355.399,264.401,362,256,362z"
   id="path20" />
<path
   style="fill:#DBE2F2;"
   d="M271,135c0,8.399-6.599,15-15,15c-8.401,0-15-6.601-15-15c0-8.401,6.599-15,15-15  C264.401,120,271,126.599,271,135z"
   id="path22" />


<path
   style="fill:#35425C;"
   d="M316,135c0,32.999-27.001,60-60,60V75C288.999,75,316,102.001,316,135z"
   id="path40" />
<path
   style="fill:#C3CEE6;"
   d="M256,150v-30c8.401,0,15,6.599,15,15C271,143.399,264.401,150,256,150z"
   id="path42" />
<path
   style="fill:#9DACCF;"
   d="M256,242c-57.9,0-105,47.1-105,105s47.1,105,105,105s105-47.1,105-105S313.9,242,256,242z M256,422  c-41.4,0-75-33.6-75-75s33.6-75,75-75s75,33.6,75,75S297.4,422,256,422z"
   id="path44" />
<path
   style="fill:#8A9CBF;"
   d="M361,347c0,57.9-47.1,105-105,105v-30c41.4,0,75-33.6,75-75s-33.6-75-75-75v-30  C313.9,242,361,289.1,361,347z"
   id="path46" />
<path
   style="fill:#9DACCF;"
   d="M256,60c-41.4,0-75,33.6-75,75s33.6,75,75,75s75-33.6,75-75S297.4,60,256,60z M256,180  c-24.901,0-45-20.101-45-45c0-24.901,20.099-45,45-45s45,20.099,45,45C301,159.899,280.901,180,256,180z"
   id="path48" />
<path
   style="fill:#8A9CBF;"
   d="M331,135c0,41.4-33.6,75-75,75v-30c24.901,0,45-20.101,45-45c0-24.901-20.099-45-45-45V60  C297.4,60,331,93.6,331,135z"
   id="path50" />
<g
   id="g52">
</g>
<g
   id="g54">
</g>
<g
   id="g56">
</g>
<g
   id="g58">
</g>
<g
   id="g60">
</g>
<g
   id="g62">
</g>
<g
   id="g64">
</g>
<g
   id="g66">
</g>
<g
   id="g68">
</g>
<g
   id="g70">
</g>
<g
   id="g72">
</g>
<g
   id="g74">
</g>
<g
   id="g76">
</g>
<g
   id="g78">
</g>
<g
   id="g80">
</g>
</svg>